# xmcd
#
# Track frame offsets:
#	150
#	17621
#	30498
#	50596
#	73379
#	88451
#	102157
#	122392
#	134579
#	149224
#
# Disc length: 2412 seconds
#
# Revision: 1
# Processed by: cddbd v1.4b42PL1 Copyright (c) Steve Scherf et al.
# Submitted via: audiograbber 1.80
#
DISCID=97096a0a
DTITLE=Tony D - The Size of Your Shoes
DYEAR=1900
DGENRE=
TTITLE0=My Baby So Far
TTITLE1=Up Jump Blues
TTITLE2=Malted Milk
TTITLE3=La Tormenta
TTITLE4=The Crying Song
TTITLE5=Hot Mama Lava
TTITLE6=All About You
TTITLE7=Hideaway
TTITLE8=Long Distance Call
TTITLE9=Little Saint
EXTD=Tony D - guitar, vocals and background vocals\nJohn Mooney - guitar on My 
EXTD=Baby So Far and Hot Mama Lava\nKen Hamm - guitar and vocals on Malted Milk
EXTD=\nJames Cohen - guitar on La Tormenta and Little Saint\nVictor Nesrallah -
EXTD=backing vocals on My Baby So Far , foot stomping on The Crying Song
EXTT0=
EXTT1=
EXTT2=
EXTT3=
EXTT4=
EXTT5=
EXTT6=
EXTT7=
EXTT8=
EXTT9=
PLAYORDER=
